<svg width="51" height="51" viewBox="0 0 51 51" fill="none" xmlns="http://www.w3.org/2000/svg">
<g clip-path="url(#clip0_15_3980)">
<path d="M25.5 51C39.5833 51 51 39.5833 51 25.5C51 11.4167 39.5833 0 25.5 0C11.4167 0 0 11.4167 0 25.5C0 39.5833 11.4167 51 25.5 51Z" fill="black"/>
<path d="M25.5007 47.3574C37.5721 47.3574 47.3578 37.5716 47.3578 25.5002C47.3578 13.4288 37.5721 3.64307 25.5007 3.64307C13.4293 3.64307 3.64355 13.4288 3.64355 25.5002C3.64355 37.5716 13.4293 47.3574 25.5007 47.3574Z" fill="#00239C"/>
<path d="M39.174 13.4664L37.4497 17.1578C39.1012 19.5256 40.0726 22.3974 40.0726 25.4999C40.0726 28.0985 39.3926 30.5331 38.2026 32.646L38.6762 38.0799C41.7969 34.8135 43.7154 30.3814 43.7154 25.506C43.7154 20.8856 42.0033 16.6781 39.174 13.4664ZM27.3469 39.956V11.0439C28.8769 11.2381 30.334 11.6692 31.6758 12.3006L33.2179 8.99779C30.8744 7.89886 28.2576 7.28564 25.5012 7.28564C22.7447 7.28564 20.1279 7.89886 17.7844 8.99779L19.3265 12.3006C20.6865 11.6631 22.1619 11.2321 23.7101 11.0378V39.9621C22.2651 39.786 20.8808 39.3914 19.5997 38.8267L19.2658 42.6214C21.2087 43.3256 23.3094 43.7142 25.5012 43.7142C27.699 43.7142 29.8119 43.3256 31.7608 42.6092L31.4269 38.8146C30.1579 39.3853 28.7858 39.7739 27.3469 39.956ZM11.8283 13.4664C8.99901 16.6781 7.28687 20.8856 7.28687 25.4999C7.28687 30.3874 9.21151 34.8256 12.3444 38.0921L12.8179 32.6703C11.6158 30.5574 10.9297 28.1106 10.9297 25.4999C10.9297 22.3974 11.9012 19.5256 13.5526 17.1639L11.8283 13.4664ZM35.0758 17.8803L37.7897 12.0578C36.8729 11.2199 35.8772 10.4792 34.8026 9.84172L29.1804 21.9117V30.5331L31.9976 24.4921L33.5154 41.8624C34.754 41.2553 35.9137 40.5085 36.9762 39.6464L35.0758 17.8803ZM21.8947 22.1121L16.1815 9.85386C15.1129 10.4914 14.1112 11.2381 13.2004 12.076L15.9265 17.9228L15.9204 18.026L14.0322 39.6464C15.0947 40.5085 16.2544 41.2553 17.4929 41.8624L19.0108 24.5224L21.9069 30.7335V22.1121H21.8947Z" fill="white"/>
</g>
<defs>
<clipPath id="clip0_15_3980">
<rect width="51" height="51" fill="white"/>
</clipPath>
</defs>
</svg>
